<svg width="64" height="64" viewBox="0 0 128 128" fill="none" xmlns="http://www.w3.org/2000/svg">
  <g clip-path="url(#cr-pin-clip0_8_7)">
  <path fill-rule="evenodd" clip-rule="evenodd" d="M0 64C0 28.6538 28.6538 0 64 0C99.3462 0 128 28.6538 128 64V128H64C28.6538 128 0 99.3462 0 64Z" fill="white"/>
  <path fill-rule="evenodd" clip-rule="evenodd" d="M116.907 64V116.907H64C34.7805 116.907 11.0933 93.2195 11.0933 64C11.0933 34.7805 34.7805 11.0933 64 11.0933C93.2195 11.0933 116.907 34.7805 116.907 64ZM0 64C0 28.6538 28.6538 0 64 0C99.3462 0 128 28.6538 128 64V128H64C28.6538 128 0 99.3462 0 64ZM36.137 88.5681C39.7005 90.7799 43.8477 91.8858 48.5786 91.8858C52.3879 91.8858 55.8285 91.1178 58.9005 89.5818C61.9725 87.9844 64.4915 85.834 66.4576 83.1306C68.4237 80.3658 69.7447 77.2631 70.4205 73.8225H58.7162C57.9175 76.1572 56.6272 78.0004 54.8455 79.3521C53.1251 80.7038 51.0362 81.3796 48.5786 81.3796C46.121 81.3796 44.0013 80.7959 42.2195 79.6286C40.4378 78.3998 39.0247 76.7102 37.9802 74.5598C36.9971 72.4094 36.5056 69.921 36.5056 67.0948C36.5056 64.2686 36.9971 61.7802 37.9802 59.6298C39.0247 57.4794 40.4378 55.8206 42.2195 54.6532C44.0013 53.4244 46.121 52.81 48.5786 52.81C50.9133 52.81 52.9408 53.4551 54.6611 54.7453C56.3815 55.9742 57.6717 57.6945 58.5319 59.9063H70.3283C69.2224 54.7454 66.7341 50.5367 62.8634 47.2804C58.9927 43.9626 54.2311 42.3037 48.5786 42.3037C43.8477 42.3037 39.7005 43.4404 36.137 45.7137C32.6349 47.9255 29.9008 50.9361 27.9347 54.7453C26.0301 58.4932 25.0778 62.6097 25.0778 67.0948C25.0778 71.5799 26.0301 75.7271 27.9347 79.5364C29.9008 83.2842 32.6349 86.2948 36.137 88.5681ZM86.1403 43.594H75.0811V90.5956H86.6011V66.081C86.6011 61.7188 87.7684 58.5546 90.1031 56.5886C91.0862 55.667 92.2535 54.9911 93.6052 54.561C95.0183 54.131 96.7387 53.9159 98.7662 53.9159H101.715V43.041H98.8583C93.2059 43.041 88.9665 44.915 86.1403 48.6628V43.594Z" fill="black"/>
  </g>
  <defs>
  <clipPath id="cr-pin-clip0_8_7">
  <rect width="128" height="128" fill="white"/>
  </clipPath>
  </defs>
</svg>